<svg xmlns="http://www.w3.org/2000/svg" viewBox="0 0 60 72" width="60" height="72">
  <!-- Schatten -->
  <ellipse cx="30" cy="69" rx="22" ry="4" fill="rgba(0,0,0,0.12)"/>
  
  <!-- Füße (schwere Stiefel, dreckig) -->
  <rect x="19" y="60" width="8" height="7" fill="#4a3728"/>
  <rect x="33" y="60" width="8" height="7" fill="#4a3728"/>
  <rect x="19" y="63" width="8" height="4" fill="#6d4c41"/>
  <rect x="33" y="63" width="8" height="4" fill="#6d4c41"/>
  
  <!-- Beine -->
  <rect x="21" y="48" width="6" height="13" fill="#5d4037"/>
  <rect x="33" y="48" width="6" height="13" fill="#5d4037"/>
  <rect x="21" y="50" width="3" height="3" fill="#6d4c41"/>
  <rect x="35" y="52" width="2" height="4" fill="#6d4c41"/>
  
  <!-- Körper (rot, dreckig) -->
  <rect x="19" y="28" width="22" height="22" fill="#c0392b"/>
  
  <!-- Dreckflecken auf rot -->
  <rect x="21" y="30" width="4" height="3" fill="#6d4c41"/>
  <rect x="30" y="35" width="5" height="4" fill="#6d4c41"/>
  <rect x="24" y="42" width="4" height="3" fill="#6d4c41"/>
  <rect x="34" y="31" width="3" height="4" fill="#6d4c41"/>
  <rect x="28" y="47" width="4" height="2" fill="#6d4c41"/>
  
  <!-- Kragen -->
  <rect x="22" y="28" width="16" height="3" fill="#922b21"/>
  
  <!-- Gürtel -->
  <rect x="18" y="44" width="24" height="3" fill="#4a3728"/>
  <rect x="27" y="43" width="6" height="6" fill="#8d6e63"/>
  
  <!-- Linker Arm (hält Spitzhacke) -->
  <rect x="13" y="30" width="7" height="16" fill="#c0392b"/>
  <rect x="12" y="44" width="6" height="6" fill="#f5e6d3"/>
  <rect x="13" y="34" width="3" height="3" fill="#6d4c41"/>
  
  <!-- Rechter Arm (führt Spitzhacke) -->
  <rect x="40" y="28" width="7" height="20" fill="#c0392b"/>
  <rect x="42" y="46" width="6" height="6" fill="#f5e6d3"/>
  <rect x="44" y="32" width="3" height="3" fill="#6d4c41"/>
  
  <!-- Spitzhacke -->
  <rect x="44" y="16" width="4" height="36" fill="#8d6e63"/>
  <rect x="40" y="14" width="12" height="4" fill="#95a5a6"/>
  <rect x="38" y="12" width="4" height="8" fill="#bdc3c7"/>
  <path d="M38,12 L34,8 L36,14 Z" fill="#bdc3c7"/>
  <path d="M52,14 L56,10 L54,16 Z" fill="#bdc3c7"/>
  
  <!-- Kopf -->
  <rect x="19" y="10" width="22" height="18" fill="#f5e6d3"/>
  <rect x="17" y="12" width="4" height="14" fill="#f5e6d3"/>
  <rect x="39" y="12" width="4" height="14" fill="#f5e6d3"/>
  <rect x="19" y="8" width="22" height="4" fill="#f5e6d3"/>
  
  <!-- Staub im Gesicht -->
  <rect x="22" y="15" width="3" height="2" fill="#6d4c41"/>
  <rect x="35" y="18" width="4" height="2" fill="#6d4c41"/>
  <rect x="28" y="22" width="3" height="2" fill="#6d4c41"/>
  <rect x="18" y="20" width="3" height="2" fill="#6d4c41"/>
  
  <!-- Haare (kurz, praktisch) -->
  <rect x="18" y="7" width="24" height="5" fill="#3d2b1f"/>
  <rect x="16" y="9" width="5" height="5" fill="#3d2b1f"/>
  <rect x="39" y="9" width="5" height="5" fill="#3d2b1f"/>
  
  <!-- Augen -->
  <rect x="21" y="17" width="5" height="5" fill="#3d2b1f"/>
  <rect x="34" y="17" width="5" height="5" fill="#3d2b1f"/>
  <rect x="22" y="17" width="2" height="2" fill="white"/>
  <rect x="35" y="17" width="2" height="2" fill="white"/>
  
  <!-- Augenbrauen (konzentriert) -->
  <rect x="20" y="14" width="6" height="2" fill="#3d2b1f"/>
  <rect x="34" y="14" width="6" height="2" fill="#3d2b1f"/>
  
  <!-- Nase -->
  <rect x="28" y="20" width="4" height="3" fill="#e8c9a0"/>
  
  <!-- Mund (leicht geöffnet) -->
  <rect x="24" y="25" width="12" height="2" fill="#a93226"/>
  
  <!-- Wangen -->
  <rect x="19" y="21" width="4" height="4" fill="rgba(192,57,43,0.10)"/>
  <rect x="37" y="21" width="4" height="4" fill="rgba(192,57,43,0.10)"/>
  
  <!-- Hals -->
  <rect x="25" y="28" width="10" height="3" fill="#f5e6d3"/>
  
  <!-- Staubpartikel -->
  <rect x="16" y="25" width="2" height="2" fill="rgba(149,165,166,0.3)"/>
  <rect x="48" y="22" width="2" height="2" fill="rgba(149,165,166,0.3)"/>
</svg>