<svg xmlns="http://www.w3.org/2000/svg" viewBox="0 0 60 72" width="60" height="72">
  <!-- Schatten -->
  <ellipse cx="30" cy="69" rx="22" ry="4" fill="rgba(0,0,0,0.12)"/>
  
  <!-- Füße -->
  <rect x="20" y="60" width="7" height="7" fill="#4a3728"/>
  <rect x="33" y="60" width="7" height="7" fill="#4a3728"/>
  
  <!-- Beine -->
  <rect x="21" y="48" width="6" height="13" fill="#5d4037"/>
  <rect x="33" y="48" width="6" height="13" fill="#5d4037"/>
  
  <!-- Körper -->
  <rect x="19" y="28" width="22" height="22" fill="#2980b9"/>
  
  <!-- Kragen -->
  <rect x="22" y="28" width="16" height="4" fill="#3498db"/>
  
  <!-- Gürtel -->
  <rect x="18" y="44" width="24" height="3" fill="#1a5276"/>
  <rect x="27" y="43" width="6" height="6" fill="#f1c40f"/>
  
  <!-- Linker Arm -->
  <rect x="13" y="30" width="7" height="18" fill="#2980b9"/>
  <rect x="12" y="46" width="6" height="6" fill="#f5e6d3"/>
  
  <!-- Rechter Arm -->
  <rect x="40" y="28" width="7" height="22" fill="#2980b9"/>
  <rect x="42" y="48" width="6" height="6" fill="#f5e6d3"/>
  
  <!-- Sense -->
  <rect x="44" y="20" width="3" height="30" fill="#8d6e63"/>
  <path d="M44,20 L52,14 L54,18 L46,22 Z" fill="#bdc3c7"/>
  <path d="M52,14 L56,10 L58,14 L54,18 Z" fill="#bdc3c7"/>
  
  <!-- Kopf -->
  <rect x="19" y="10" width="22" height="18" fill="#f5e6d3"/>
  <rect x="17" y="12" width="4" height="14" fill="#f5e6d3"/>
  <rect x="39" y="12" width="4" height="14" fill="#f5e6d3"/>
  <rect x="19" y="8" width="22" height="4" fill="#f5e6d3"/>
  
  <!-- Strohhut -->
  <rect x="14" y="6" width="32" height="5" fill="#d4a574"/>
  <rect x="20" y="2" width="20" height="6" fill="#d4a574"/>
  <rect x="18" y="6" width="24" height="2" fill="#c4956a"/>
  
  <!-- Strohhut-Band (blau) -->
  <rect x="20" y="5" width="20" height="2" fill="#2980b9"/>
  
  <!-- Augen -->
  <rect x="21" y="17" width="5" height="5" fill="#3d2b1f"/>
  <rect x="34" y="17" width="5" height="5" fill="#3d2b1f"/>
  
  <!-- Augen-Highlight -->
  <rect x="22" y="17" width="2" height="2" fill="white"/>
  <rect x="35" y="17" width="2" height="2" fill="white"/>
  
  <!-- Augenbrauen -->
  <rect x="21" y="14" width="5" height="2" fill="#6d4c41"/>
  <rect x="34" y="14" width="5" height="2" fill="#6d4c41"/>
  
  <!-- Nase -->
  <rect x="28" y="20" width="4" height="3" fill="#e8c9a0"/>
  
  <!-- Mund -->
  <rect x="24" y="25" width="12" height="2" fill="#a93226"/>
  
  <!-- Wangen -->
  <rect x="19" y="21" width="4" height="4" fill="rgba(41,128,185,0.10)"/>
  <rect x="37" y="21" width="4" height="4" fill="rgba(41,128,185,0.10)"/>
  
  <!-- Hals -->
  <rect x="25" y="28" width="10" height="3" fill="#f5e6d3"/>
</svg>